<svg width="16" height="17" viewBox="0 0 16 17" fill="none" xmlns="http://www.w3.org/2000/svg">
<g clip-path="url(#clip0_1_636)">
<path d="M8 0.5C4.6865 0.5 2 3.1865 2 6.5C2 7.80475 2.42775 9.002 3.13875 9.9825C3.1515 10.006 3.1535 10.0323 3.168 10.0548L7.168 16.0548C7.3535 16.333 7.666 16.5 8 16.5C8.334 16.5 8.6465 16.333 8.832 16.0548L12.832 10.0548C12.8467 10.0323 12.8485 10.006 12.8612 9.9825C13.5723 9.002 14 7.80475 14 6.5C14 3.1865 11.3135 0.5 8 0.5ZM8 8.5C6.8955 8.5 6 7.6045 6 6.5C6 5.3955 6.8955 4.5 8 4.5C9.1045 4.5 10 5.3955 10 6.5C10 7.6045 9.1045 8.5 8 8.5Z" fill="black"/>
</g>
<defs>
<clipPath id="clip0_1_636">
<rect width="16" height="16" fill="white" transform="translate(0 0.5)"/>
</clipPath>
</defs>
</svg>
